<svg xmlns="http://www.w3.org/2000/svg" viewBox="0 0 1000 1000"><path d="M461.6 169.18C297.5 183.01 150.55 280.85 69.67 430.34c-25.92 47.94-45.02 106.41-54.18 164.88-3.51 23.19-4.29 38.59-5.07 107.19-1.17 94.72-.97 96.47 15.59 113.04C43.94 833.38-1.66 831.82 500 831.82s456.06 1.56 473.99-16.37c16.57-16.57 16.76-17.54 15.59-117.91-.78-74.25-1.37-88.29-5.07-111.87-8.18-52.62-21.44-94.72-44.83-142.67-48.91-99.98-125.7-176.57-225.29-225.1-48.92-23.97-91.8-37.23-143.64-44.83-30.02-4.48-80.49-6.23-109.15-3.89zm85.76 35.08c197.63 21.44 359.59 168 398.96 361.53 7.41 36.06 8.77 58.47 8.77 140.91v80.49l-4.87 4.68-4.68 4.87H54.46l-4.87-4.87-5.07-5.07.78-86.14c.97-95.5 2.14-107.19 16.18-158.06 42.88-156.31 165.66-280.85 319.63-324.5 18.91-5.26 55.55-12.28 75.04-14.42 15.39-1.76 73.67-1.18 91.21.58z"/><path d="M489.48 242.46l-6.04 5.07v41.51c0 38.98.19 41.71 4.09 46.58 3.12 4.09 5.65 5.07 12.47 5.07s9.35-.97 12.47-5.07c3.9-4.87 4.09-7.6 4.09-46.39-.19-43.07-.39-45.02-9.16-49.5-6.43-3.51-11.49-2.73-17.92 2.73zM287.56 296.44c-9.16 7.8-7.41 14.23 12.67 49.11 9.94 17.15 19.88 33.13 22.02 35.47 3.9 4.48 12.86 5.85 19.88 3.31 3.51-1.36 8.77-10.72 8.77-15.79 0-4.48-37.81-70.36-42.49-73.87-5.26-4.07-15.2-3.29-20.85 1.77zM691.58 294.69c-4.48 3.31-42.48 69.38-42.48 73.87 0 5.07 5.26 14.42 8.77 15.79 7.02 2.54 15.98 1.17 19.88-3.31 2.14-2.34 12.08-18.32 22.02-35.47 20.07-34.89 21.83-41.32 12.67-49.11-5.65-5.08-15.59-5.86-20.86-1.77zM145.09 440.08c-10.52 4.29-13.64 17.73-6.04 26.11 4.68 5.46 62.56 39.37 70.16 41.32 5.65 1.36 15.98-3.31 17.74-7.99 1.95-5.46 1.36-15.59-1.17-18.91-3.31-4.09-65.68-39.95-71.92-41.32-2.53-.57-6.62-.18-8.77.79zM843.99 439.5c-7.21 2.73-67.43 38.59-69.58 41.32-2.53 3.31-3.31 13.45-1.36 18.71 1.95 4.68 12.08 9.35 17.93 7.8 7.6-1.95 65.1-35.67 70.16-41.13 2.34-2.73 4.29-7.41 4.29-10.52 0-10.14-12.67-19.69-21.44-16.18zM265.93 510.25c-9.35 3.7-13.45 16.57-7.8 24.56 1.56 2.15 41.32 26.12 88.48 53.4l85.75 49.31-.97 14.03c-2.53 33.33 16.18 61.2 47.94 71.14 15.59 4.87 25.73 4.87 41.32 0 50.67-15.98 65.29-80.1 26.7-116.16-12.85-11.89-24.35-16.77-42.87-17.93-20.27-1.17-34.11 3.51-53.01 17.74-1.36 1.17-32.55-15.79-83.22-45.02-103.1-59.45-93.55-54.78-102.32-51.07zm244.98 113.23c9.16 3.12 18.71 12.67 22.41 22.41 9.55 25.14-14.03 51.06-41.12 45.22-33.13-7.41-37.23-51.84-5.85-66.07 9.17-4.29 15.4-4.48 24.56-1.56zM88.18 642.19c-3.31 1.17-8.19 11.11-8.19 16.18 0 2.34 2.53 6.82 5.65 9.94l5.65 5.65h40.34c25.14 0 41.71-.78 44.24-2.15 4.87-2.53 9.74-14.03 7.99-18.71-.58-1.95-2.92-5.46-5.07-7.99-3.9-4.29-4.87-4.29-46-4.09-23.17 0-43.24.59-44.61 1.17zM820.8 645.5c-6.43 6.82-6.04 18.13.78 23.97 4.87 4.29 6.24 4.48 46 4.48h41.12l5.65-5.65c3.12-3.12 5.65-7.6 5.65-9.94 0-5.65-5.07-14.81-8.77-16.37-1.75-.58-21.83-1.17-44.63-1.17-41.32.01-41.51.01-45.8 4.68z"/></svg>