<svg height="512" viewBox="0 0 64 64" width="512" xmlns="http://www.w3.org/2000/svg"><path d="M26 48c0 .379-.214.725-.553.895l-4 2a1.005 1.005 0 01-.972-.044A1.001 1.001 0 0120 50v-3.134l-3 1.714v11.696l12-6.857V41.723l-3 1.714zm27 11c0 1.103.897 2 2 2s2-.897 2-2v-2h-4zM3 53.42l12 6.857V48.58L3 41.723zm4.125-15.197L4.016 40 16 46.848l3.11-1.777zM53 55h1V34.535l-1-.667zm0-50.586V11h6.586zM27.984 40L16 33.152l-3.109 1.777 11.984 6.848z"/><path d="M22 45v3.382l2-1V43.58l-13.125-7.5-1.735.991 12.356 7.06c.312.179.504.51.504.869zm30-32a1 1 0 01-1-1V3H27v34.134l3.496 1.998A.999.999 0 0131 40v9h20V32a1 1 0 01.063-.351l3-8a1.002 1.002 0 011.874 0l3 8A1 1 0 0159 32v17h2V13zm-23 2h2v2h-2zm20 14H29v-2h20zm0-4H29v-2h20zm6-4H29v-2h26zm4 0h-2v-2h2zm0-4H33v-2h26z"/><path d="M56.785 31.608L55 26.848l-1.785 4.76L55 32.798zM56 55h1V33.868l-1 .667z"/></svg>