<svg xmlns="http://www.w3.org/2000/svg" viewBox="0 0 97.92 122.88"><path d="M21.95 18.35h34.79c2.47 0 2.34 1 2.12 3.55l-1.4 17.92c-.24 2.85-.04 2.16-3.06 2.6l-24.8 2.17 1.47 4.27H58c.41 1.52.96 3.98 1.36 5.67h-4.97l-.48-1.73H32.99c-5.49-.09-4.94 1.39-6.25-3.35l-9.43-32.2H14.4v-4.01h6.32c.37 1.39.89 3.71 1.23 5.11zM68.17.66C67.73.26 67.11 0 66.5 0c-.13 0-.26 0-.4.04H5.54c-1.49 0-2.9.62-3.91 1.63A5.476 5.476 0 000 5.58v111.76c0 1.54.62 2.9 1.63 3.91a5.476 5.476 0 003.91 1.63H92.3c1.54 0 2.9-.62 3.91-1.63a5.476 5.476 0 001.63-3.91V32.3c.04-.22.09-.4.09-.62 0-.75-.35-1.41-.84-1.89L68.47.83c-.09-.09-.13-.13-.22-.18l-.08.01zM66.2 5.01v19.46a7.514 7.514 0 007.52 7.52h19.06v85.36c0 .13-.04.31-.18.4-.09.09-.22.18-.4.18H5.49c-.13 0-.31-.04-.4-.18a.644.644 0 01-.18-.4V5.58c0-.18.04-.31.18-.4.09-.09.22-.18.4-.18H66.2v.01zm4.96 19.46V8.97l17.79 18.05H73.71c-.7 0-1.32-.31-1.8-.75-.44-.44-.75-1.1-.75-1.8zM20.52 69.69a2.5 2.5 0 00-2.5 2.5c0 1.36 1.1 2.51 2.5 2.51h56.13c1.36 0 2.51-1.1 2.51-2.51 0-1.36-1.1-2.5-2.51-2.5H20.52zm.94 29.69c-1.36 0-2.51 1.1-2.51 2.51 0 1.36 1.1 2.5 2.51 2.5h55.76c1.36 0 2.51-1.1 2.51-2.51 0-1.36-1.1-2.5-2.51-2.5H21.46zm-.94-14.32a2.5 2.5 0 000 5h56.7a2.5 2.5 0 000-5h-56.7zM37 22.87h7.19v7.3h6.47L40.6 39.95l-10.07-9.79H37v-7.29zm-3.97 32.34a3.841 3.841 0 010 7.68 3.841 3.841 0 010-7.68zm15.83 0a3.841 3.841 0 010 7.68 3.841 3.841 0 010-7.68z" fill-rule="evenodd" clip-rule="evenodd"/></svg>